<svg width="76" height="76" viewBox="0 0 76 76" fill="none" xmlns="http://www.w3.org/2000/svg">
<rect width="76" height="76" rx="38" fill="#006477"/>
<path d="M32.75 24.25C32.75 23.1454 33.6454 22.25 34.75 22.25H41.25C42.3546 22.25 43.25 23.1454 43.25 24.25V29.25H32.75V24.25Z" fill="#006477" stroke="white" stroke-width="2" stroke-linecap="round" stroke-linejoin="round"/>
<path d="M32.75 25.75H27.75C26.6454 25.75 25.75 26.6454 25.75 27.75V51.75C25.75 52.8546 26.6454 53.75 27.75 53.75H34.5M43.25 25.75H48.25C49.3546 25.75 50.25 26.6454 50.25 27.75V38" stroke="white" stroke-width="2" stroke-linecap="round" stroke-linejoin="round"/>
<path fill-rule="evenodd" clip-rule="evenodd" d="M40.7737 45.7497C39.4069 47.1166 39.4069 49.3326 40.7737 50.6995L45.7234 55.6492L50.6732 50.6995C52.04 49.3326 52.04 47.1166 50.6732 45.7497C49.3064 44.3829 47.0903 44.3829 45.7234 45.7497C44.3566 44.3829 42.1405 44.3829 40.7737 45.7497Z" fill="#006477"/>
<path d="M45.7234 55.6492L45.0163 56.3563C45.4069 56.7469 46.04 56.7469 46.4306 56.3563L45.7234 55.6492ZM45.7234 45.7497L45.0163 46.4568C45.2039 46.6444 45.4582 46.7497 45.7234 46.7497C45.9887 46.7497 46.243 46.6444 46.4306 46.4568L45.7234 45.7497ZM41.4808 49.9924C40.5045 49.0161 40.5045 47.4332 41.4808 46.4568L40.0666 45.0426C38.3092 46.8 38.3092 49.6492 40.0666 51.4066L41.4808 49.9924ZM46.4306 54.9421L41.4808 49.9924L40.0666 51.4066L45.0163 56.3563L46.4306 54.9421ZM49.9661 49.9924L45.0163 54.9421L46.4306 56.3563L51.3803 51.4066L49.9661 49.9924ZM49.9661 46.4568C50.9424 47.4332 50.9424 49.0161 49.9661 49.9924L51.3803 51.4066C53.1377 49.6492 53.1377 46.8 51.3803 45.0426L49.9661 46.4568ZM46.4306 46.4568C47.4069 45.4805 48.9898 45.4805 49.9661 46.4568L51.3803 45.0426C49.6229 43.2853 46.7737 43.2853 45.0163 45.0426L46.4306 46.4568ZM41.4808 46.4568C42.4571 45.4805 44.04 45.4805 45.0163 46.4568L46.4306 45.0426C44.6732 43.2853 41.824 43.2853 40.0666 45.0426L41.4808 46.4568Z" fill="white"/>
</svg>
