<svg width="76" height="76" viewBox="0 0 76 76" fill="none" xmlns="http://www.w3.org/2000/svg">
<rect width="76" height="76" rx="38" fill="#006477"/>
<path d="M32.75 25.75H27.75C26.6454 25.75 25.75 26.6454 25.75 27.75V51.75C25.75 52.8546 26.6454 53.75 27.75 53.75H48.25C49.3546 53.75 50.25 52.8546 50.25 51.75V27.75C50.25 26.6454 49.3546 25.75 48.25 25.75H43.25" stroke="white" stroke-width="2" stroke-linecap="round" stroke-linejoin="round"/>
<path d="M38 38H43.25" stroke="white" stroke-width="2" stroke-linecap="round" stroke-linejoin="round"/>
<path d="M38 45H43.25" stroke="white" stroke-width="2" stroke-linecap="round" stroke-linejoin="round"/>
<path d="M32.75 24.25C32.75 23.1454 33.6454 22.25 34.75 22.25H41.25C42.3546 22.25 43.25 23.1454 43.25 24.25V29.25H32.75V24.25Z" fill="#006477" stroke="white" stroke-width="2" stroke-linecap="round" stroke-linejoin="round"/>
<circle cx="33.4504" cy="38" r="1.05" fill="white"/>
<circle cx="33.4504" cy="45" r="1.05" fill="white"/>
</svg>
