<svg width="52" height="53" viewBox="0 0 52 53" fill="none" xmlns="http://www.w3.org/2000/svg">
<g clip-path="url(#clip0_2356_35686)">
<path d="M36.8337 26.5001C36.8337 24.3575 36.1983 22.2629 35.0079 20.4814C33.8175 18.6999 32.1256 17.3113 30.1461 16.4914C28.1665 15.6714 25.9883 15.4569 23.8869 15.8749C21.7854 16.2929 19.8551 17.3247 18.34 18.8398C16.8249 20.3548 15.7932 22.2851 15.3752 24.3866C14.9571 26.4881 15.1717 28.6663 15.9916 30.6458C16.8116 32.6254 18.2001 34.3173 19.9817 35.5077C21.7632 36.6981 23.8577 37.3334 26.0003 37.3334" stroke="#006477" stroke-width="2" stroke-linecap="round" stroke-linejoin="round"/>
<path d="M23.833 7H28.1663M25.9997 15.6667V7V15.6667Z" stroke="#006477" stroke-width="2" stroke-linecap="round" stroke-linejoin="round"/>
<path d="M38.2568 11.1794L41.321 14.2436M33.6606 18.8398L39.7889 12.7115L33.6606 18.8398Z" stroke="#006477" stroke-width="2" stroke-linecap="round" stroke-linejoin="round"/>
<path d="M45.5 24.3333V28.6666M36.8333 26.4999H45.5H36.8333Z" stroke="#006477" stroke-width="2" stroke-linecap="round" stroke-linejoin="round"/>
<path d="M28.167 46H23.8337M26.0003 37.3333V46V37.3333Z" stroke="#006477" stroke-width="2" stroke-linecap="round" stroke-linejoin="round"/>
<path d="M13.7432 41.8206L10.679 38.7564M18.3394 34.1602L12.2111 40.2885L18.3394 34.1602Z" stroke="#006477" stroke-width="2" stroke-linecap="round" stroke-linejoin="round"/>
<path d="M6.5 28.6667L6.5 24.3334M15.1667 26.5001H6.5H15.1667Z" stroke="#006477" stroke-width="2" stroke-linecap="round" stroke-linejoin="round"/>
<path d="M10.6797 14.2434L13.7438 11.1793M18.34 18.8396L12.2118 12.7113L18.34 18.8396Z" stroke="#006477" stroke-width="2" stroke-linecap="round" stroke-linejoin="round"/>
<path d="M37.9167 43.8333C40.9082 43.8333 43.3333 41.4082 43.3333 38.4167C43.3333 35.4251 40.9082 33 37.9167 33C34.9251 33 32.5 35.4251 32.5 38.4167C32.5 41.4082 34.9251 43.8333 37.9167 43.8333Z" stroke="#006477" stroke-width="2" stroke-linecap="round" stroke-linejoin="round"/>
<path d="M42.25 42.75L47.6667 48.1667" stroke="#006477" stroke-width="2" stroke-linecap="round" stroke-linejoin="round"/>
</g>
<defs>
<clipPath id="clip0_2356_35686">
<rect width="52" height="52" fill="white" transform="translate(0 0.5)"/>
</clipPath>
</defs>
</svg>
