<svg width="52" height="53" viewBox="0 0 52 53" fill="none" xmlns="http://www.w3.org/2000/svg">
<g clip-path="url(#clip0_2356_35681)">
<path d="M13 41.6667C16.5899 41.6667 19.5 38.7566 19.5 35.1667C19.5 31.5769 16.5899 28.6667 13 28.6667C9.41015 28.6667 6.5 31.5769 6.5 35.1667C6.5 38.7566 9.41015 41.6667 13 41.6667Z" stroke="#006477" stroke-width="2" stroke-linecap="round" stroke-linejoin="round"/>
<path d="M34.6663 45.9999C37.0596 45.9999 38.9997 44.0598 38.9997 41.6666C38.9997 39.2734 37.0596 37.3333 34.6663 37.3333C32.2731 37.3333 30.333 39.2734 30.333 41.6666C30.333 44.0598 32.2731 45.9999 34.6663 45.9999Z" stroke="#006477" stroke-width="2" stroke-linecap="round" stroke-linejoin="round"/>
<path d="M31.417 26.5C36.8018 26.5 41.167 22.1348 41.167 16.75C41.167 11.3652 36.8018 7 31.417 7C26.0322 7 21.667 11.3652 21.667 16.75C21.667 22.1348 26.0322 26.5 31.417 26.5Z" stroke="#006477" stroke-width="2" stroke-linecap="round" stroke-linejoin="round"/>
</g>
<defs>
<clipPath id="clip0_2356_35681">
<rect width="52" height="52" fill="white" transform="translate(0 0.5)"/>
</clipPath>
</defs>
</svg>
