<svg width="52" height="53" viewBox="0 0 52 53" fill="none" xmlns="http://www.w3.org/2000/svg">
<path d="M8.66699 42.8334C8.11471 42.8334 7.66699 43.2811 7.66699 43.8334C7.66699 44.3857 8.11471 44.8334 8.66699 44.8334V42.8334ZM43.3337 44.8334C43.8859 44.8334 44.3337 44.3857 44.3337 43.8334C44.3337 43.2811 43.8859 42.8334 43.3337 42.8334V44.8334ZM16.3707 37.0556C15.8184 37.0556 15.3707 37.5033 15.3707 38.0556C15.3707 38.6079 15.8184 39.0556 16.3707 39.0556V37.0556ZM29.8522 39.0556C30.4045 39.0556 30.8522 38.6079 30.8522 38.0556C30.8522 37.5033 30.4045 37.0556 29.8522 37.0556V39.0556ZM20.2225 31.2779C19.6703 31.2779 19.2225 31.7256 19.2225 32.2779C19.2225 32.8301 19.6703 33.2779 20.2225 33.2779V31.2779ZM26.0003 33.2779C26.5526 33.2779 27.0003 32.8301 27.0003 32.2779C27.0003 31.7256 26.5526 31.2779 26.0003 31.2779V33.2779ZM18.2966 13.0186V12.0186C17.7443 12.0186 17.2966 12.4663 17.2966 13.0186H18.2966ZM27.9263 13.0186H28.9263C28.9263 12.4663 28.4785 12.0186 27.9263 12.0186V13.0186ZM27.9263 26.5001V27.5001C28.4785 27.5001 28.9263 27.0524 28.9263 26.5001H27.9263ZM18.2966 26.5001H17.2966C17.2966 27.0524 17.7443 27.5001 18.2966 27.5001V26.5001ZM20.2225 13.0186V14.0186C20.6814 14.0186 21.0814 13.7063 21.1927 13.2611L20.2225 13.0186ZM25.0374 9.16675L26.0075 8.92421C25.8962 8.47905 25.4962 8.16675 25.0374 8.16675V9.16675ZM21.1855 9.16675V8.16675C20.7266 8.16675 20.3267 8.47905 20.2154 8.92421L21.1855 9.16675ZM26.0003 13.0186L25.0302 13.2611C25.1415 13.7063 25.5415 14.0186 26.0003 14.0186V13.0186ZM27.9263 17.7964C27.374 17.7964 26.9263 18.2441 26.9263 18.7964C26.9263 19.3487 27.374 19.7964 27.9263 19.7964V17.7964ZM34.3581 42.9769C33.885 43.2619 33.7326 43.8765 34.0177 44.3495C34.3027 44.8226 34.9173 44.975 35.3903 44.6899L34.3581 42.9769ZM8.66699 44.8334H43.3337V42.8334H8.66699V44.8334ZM16.3707 39.0556H29.8522V37.0556H16.3707V39.0556ZM20.2225 33.2779H26.0003V31.2779H20.2225V33.2779ZM26.9263 13.0186V26.5001H28.9263V13.0186H26.9263ZM27.9263 25.5001H18.2966V27.5001H27.9263V25.5001ZM19.2966 26.5001V13.0186H17.2966V26.5001H19.2966ZM18.2966 14.0186H20.2225V12.0186H18.2966V14.0186ZM21.1927 13.2611L22.1557 9.40928L20.2154 8.92421L19.2524 12.7761L21.1927 13.2611ZM21.1855 10.1667H25.0374V8.16675H21.1855V10.1667ZM24.0672 9.40928L25.0302 13.2611L26.9705 12.7761L26.0075 8.92421L24.0672 9.40928ZM26.0003 14.0186H27.9263V12.0186H26.0003V14.0186ZM27.9263 19.7964C34.8196 19.7964 40.4077 25.3845 40.4077 32.2779H42.4077C42.4077 24.28 35.9242 17.7964 27.9263 17.7964V19.7964ZM40.4077 32.2779C40.4077 36.8169 37.9854 40.7912 34.3581 42.9769L35.3903 44.6899C39.5932 42.1575 42.4077 37.5468 42.4077 32.2779H40.4077Z" fill="#006477"/>
</svg>
