<svg width="68" height="68" viewBox="0 0 68 68" fill="none" xmlns="http://www.w3.org/2000/svg">
<path d="M19.5437 3.941C19.5756 2.85987 20.4612 2 21.5428 2H46.4589C47.5406 2 48.4262 2.85999 48.458 3.94119L48.9394 20.3048C48.9726 21.4319 48.0679 22.3636 46.9403 22.3636H21.0599C19.9322 22.3636 19.0275 21.4318 19.0608 20.3046L19.5437 3.941Z" stroke="#006477" stroke-width="3"/>
<path d="M23.8184 22.4628C23.8184 22.4082 23.8626 22.364 23.9171 22.364H44.0832C44.1377 22.364 44.182 22.4082 44.182 22.4628V55.8185C44.182 61.4417 39.6234 66.0003 34.0002 66.0003V66.0003C28.3769 66.0003 23.8184 61.4418 23.8184 55.8185V22.4628Z" stroke="#006477" stroke-width="3"/>
<path d="M23.8184 32.5457H32.5456" stroke="#006477" stroke-width="3" stroke-linecap="round"/>
<path d="M23.8184 42.7275H32.5456" stroke="#006477" stroke-width="3" stroke-linecap="round"/>
<path d="M23.8184 52.9092H32.5456" stroke="#006477" stroke-width="3" stroke-linecap="round"/>
</svg>
