<svg width="68" height="68" viewBox="0 0 68 68" fill="none" xmlns="http://www.w3.org/2000/svg">
<path d="M6 47.0146L27.7687 24.7054C28.2639 24.1978 28.9573 23.9413 29.6561 24.0114L34.9925 24.5411L42.472 32.2064L42.9889 37.6753C43.0573 38.3932 42.807 39.102 42.3117 39.6096L20.4638 62" stroke="#006477" stroke-width="3" stroke-linecap="round" stroke-linejoin="round"/>
<path d="M42.5795 33L49 26.5795L41.4205 19L35 25.4205" stroke="#006477" stroke-width="3" stroke-linecap="round" stroke-linejoin="round"/>
<path d="M46.9618 24L53 17.9636L49.0364 14L43 20.0363" stroke="#006477" stroke-width="3" stroke-linecap="round" stroke-linejoin="round"/>
<path d="M51 16L63 5" stroke="#006477" stroke-width="3" stroke-linecap="round" stroke-linejoin="round"/>
<path d="M40 42L33 35" stroke="#006477" stroke-width="3" stroke-linejoin="round"/>
<path d="M35 46L31 42" stroke="#006477" stroke-width="3" stroke-linejoin="round"/>
<path d="M30 51L24 45" stroke="#006477" stroke-width="3" stroke-linejoin="round"/>
<path d="M26 56L21 51" stroke="#006477" stroke-width="3" stroke-linejoin="round"/>
<path d="M5.97845 47C0.528577 35.5664 2.55771 21.481 12.0658 12.0194C22.6468 1.49029 38.9837 0.179811 51 8.088" stroke="#006477" stroke-width="3" stroke-linecap="round" stroke-linejoin="round"/>
<path d="M21 61.8229C32.2448 67.4378 45.9702 65.7477 55.9973 55.6543C66.7211 44.8597 67.8627 28.075 59.4314 16" stroke="#006477" stroke-width="3" stroke-linecap="round" stroke-linejoin="round"/>
</svg>
