<svg width="72" height="67" viewBox="0 0 72 67" fill="none" xmlns="http://www.w3.org/2000/svg">
<path d="M8.55236 16C8.55236 22.6614 6.71424 24.1247 4.09144 26.2761C2.76305 27.3668 2 28.9713 2 30.6629V59.7964C2 62.1191 3.93389 64 6.3219 64H27.6781C30.0661 64 32 62.1191 32 59.7964V30.6629C32 28.9743 31.2339 27.3668 29.9086 26.2761C27.2858 24.1217 25.4476 22.6614 25.4476 16" stroke="white" stroke-width="3" stroke-linecap="round" stroke-linejoin="round"/>
<path d="M15.6233 15H5V7.43646C5 4.98408 7.01353 3 9.49532 3H24.5047C26.9896 3 29 4.98716 29 7.43646V15H15.6202H15.6233Z" stroke="white" stroke-width="3" stroke-linecap="round" stroke-linejoin="round"/>
<path d="M2 33H32" stroke="white" stroke-width="3" stroke-linecap="round" stroke-linejoin="round"/>
<path d="M2 54H32" stroke="white" stroke-width="3" stroke-linecap="round" stroke-linejoin="round"/>
<path d="M46.5524 16C46.5524 22.6614 44.7142 24.1247 42.0914 26.2761C40.7631 27.3668 40 28.9713 40 30.6629V59.7964C40 62.1191 41.9339 64 44.3219 64H65.6781C68.0661 64 70 62.1191 70 59.7964V30.6629C70 28.9743 69.2339 27.3668 67.9086 26.2761C65.2858 24.1217 63.4476 22.6614 63.4476 16" stroke="white" stroke-width="3" stroke-linecap="round" stroke-linejoin="round"/>
<path d="M53.6233 15H43V7.43646C43 4.98408 45.0135 3 47.4953 3H62.5047C64.9896 3 67 4.98716 67 7.43646V15H53.6202H53.6233Z" stroke="white" stroke-width="3" stroke-linecap="round" stroke-linejoin="round"/>
<path d="M40 33H70" stroke="white" stroke-width="3" stroke-linecap="round" stroke-linejoin="round"/>
<path d="M40 54H70" stroke="white" stroke-width="3" stroke-linecap="round" stroke-linejoin="round"/>
</svg>
