<svg width="68" height="68" viewBox="0 0 68 68" fill="none" xmlns="http://www.w3.org/2000/svg">
<g clip-path="url(#clip0_1891_52478)">
<path d="M1.41737 68C1.05471 68 0.692042 67.8612 0.414375 67.5863C-0.138125 67.0338 -0.138125 66.1357 0.414375 65.5832L11.7477 54.2498C12.3002 53.6973 13.1984 53.6973 13.7509 54.2498C14.3034 54.8023 14.3034 55.7005 13.7509 56.253L2.41754 67.5863C2.14271 67.8612 1.78004 68 1.41737 68Z" fill="white"/>
<path d="M24.0838 59.5001C23.9676 59.5001 23.8543 59.486 23.7409 59.4576L12.4076 56.6243C11.9004 56.4968 11.5038 56.103 11.3763 55.593L8.54294 44.2596C8.42111 43.778 8.56277 43.2651 8.9141 42.9138L40.0808 11.7471C40.6333 11.1946 41.5314 11.1946 42.0839 11.7471C42.6364 12.2996 42.6364 13.1978 42.0839 13.7503L11.4839 44.3503L13.9149 54.0828L23.6474 56.5138L54.2474 25.9138C54.7999 25.3613 55.6981 25.3613 56.2506 25.9138C56.8031 26.4663 56.8031 27.3645 56.2506 27.917L25.0839 59.0836C24.8176 59.3528 24.4549 59.5001 24.0838 59.5001Z" fill="white"/>
<path d="M58.0847 31.1667C57.722 31.1667 57.3594 31.0279 57.0817 30.7531L37.2484 10.9197C36.6959 10.3672 36.6959 9.46907 37.2484 8.91657C37.8009 8.36407 38.699 8.36407 39.2515 8.91657L59.0849 28.7499C59.6374 29.3024 59.6374 30.2006 59.0849 30.7531C58.81 31.0279 58.4474 31.1667 58.0847 31.1667Z" fill="white"/>
<path d="M66.584 17.0001C66.2214 17.0001 65.8587 16.8612 65.581 16.5864L51.4144 2.41974C50.8619 1.86724 50.8619 0.969072 51.4144 0.416572C51.9669 -0.135928 52.865 -0.135928 53.4175 0.416572L67.5842 14.5832C68.1367 15.1357 68.1367 16.0339 67.5842 16.5864C67.3094 16.8612 66.9467 17.0001 66.584 17.0001Z" fill="white"/>
<path d="M48.1674 12.75C47.8047 12.75 47.442 12.6112 47.1644 12.3363C46.6119 11.7838 46.6119 10.8857 47.1644 10.3332L54.2477 3.24982C54.8002 2.69732 55.6984 2.69732 56.2509 3.24982C56.8034 3.80232 56.8034 4.70049 56.2509 5.25299L49.1675 12.3363C48.8927 12.6112 48.53 12.75 48.1674 12.75Z" fill="white"/>
<path d="M56.6674 21.25C56.3047 21.25 55.942 21.1112 55.6644 20.8363C55.1119 20.2838 55.1119 19.3857 55.6644 18.8332L62.7477 11.7498C63.3002 11.1973 64.1984 11.1973 64.7509 11.7498C65.3034 12.3023 65.3034 13.2005 64.7509 13.753L57.6675 20.8363C57.3927 21.1112 57.03 21.25 56.6674 21.25Z" fill="white"/>
<path d="M19.8334 45.3334C19.4707 45.3334 19.1081 45.1946 18.8304 44.9197L14.5804 40.6697C14.0279 40.1172 14.0279 39.2191 14.5804 38.6666C15.1329 38.1141 16.0311 38.1141 16.5836 38.6666L20.8336 42.9166C21.3861 43.4691 21.3861 44.3672 20.8336 44.9197C20.5587 45.1946 20.1961 45.3334 19.8334 45.3334Z" fill="white"/>
<path d="M29.7514 35.4167C29.3887 35.4167 29.026 35.2778 28.7484 35.003L24.4984 30.753C23.9459 30.2005 23.9459 29.3023 24.4984 28.7498C25.0509 28.1973 25.949 28.1973 26.5015 28.7498L30.7515 32.9998C31.304 33.5523 31.304 34.4505 30.7515 35.003C30.4767 35.2778 30.114 35.4167 29.7514 35.4167Z" fill="white"/>
<path d="M39.6908 25.4774C39.3281 25.4774 38.9655 25.3386 38.6878 25.0638L34.4378 20.8138C33.8853 20.2613 33.8853 19.3631 34.4378 18.8106C34.9903 18.2581 35.8885 18.2581 36.441 18.8106L40.691 23.0606C41.2435 23.6131 41.2435 24.5113 40.691 25.0638C40.4161 25.3386 40.0535 25.4774 39.6908 25.4774Z" fill="white"/>
<path d="M24.0834 39.6667C23.7207 39.6667 23.3581 39.5278 23.0804 39.253L18.8304 35.003C18.2779 34.4505 18.2779 33.5523 18.8304 32.9998C19.3829 32.4473 20.2811 32.4473 20.8336 32.9998L25.0836 37.2498C25.6361 37.8023 25.6361 38.7005 25.0836 39.253C24.8087 39.5278 24.4461 39.6667 24.0834 39.6667Z" fill="white"/>
<path d="M34.0014 29.7502C33.6387 29.7502 33.276 29.6113 32.9984 29.3365L28.7484 25.0865C28.1959 24.534 28.1959 23.6358 28.7484 23.0833C29.3009 22.5308 30.199 22.5308 30.7515 23.0833L35.0015 27.3333C35.554 27.8858 35.554 28.784 35.0015 29.3365C34.7267 29.6113 34.364 29.7502 34.0014 29.7502Z" fill="white"/>
</g>
<defs>
<clipPath id="clip0_1891_52478">
<rect width="68" height="68" fill="white"/>
</clipPath>
</defs>
</svg>
