<svg width="48" height="48" viewBox="0 0 48 48" fill="none" xmlns="http://www.w3.org/2000/svg">
<path d="M32.2099 7H37.4208C39.9496 7 42 8.98511 42 11.4333V42.5667C42 45.0149 39.9496 47 37.4208 47H10.5792C8.05043 47 6 45.0149 6 42.5667V11.4333C6 8.98511 8.05043 7 10.5792 7H15.7923" stroke="#006477" stroke-width="2" stroke-miterlimit="10" stroke-linecap="round"/>
<path d="M21.1348 5.01495V3.4318C21.1348 2.32754 22.1398 1.43286 23.3802 1.43286H24.6207C25.8611 1.43286 26.8661 2.32754 26.8661 3.4318V5.01495" stroke="#006477" stroke-width="2" stroke-linecap="round" stroke-linejoin="round"/>
<path d="M29.7322 5.01489H18.2695V9.3134H29.7322V5.01489Z" stroke="#006477" stroke-width="2" stroke-linecap="round" stroke-linejoin="round"/>
<path d="M20.2197 16.9912V19.282H19.0549H15.1076H13.7676V12.9377H17.4259" stroke="#006477" stroke-width="1.43284" stroke-linecap="round" stroke-linejoin="round"/>
<path d="M15.8164 15.8415L17.2486 17.3336L20.8284 12.9355" stroke="#006477" stroke-width="1.43284" stroke-linecap="round" stroke-linejoin="round"/>
<path d="M20.2197 27.3925V29.6821H19.0549H15.1076H13.7676V23.3379H17.4259" stroke="#006477" stroke-width="1.43284" stroke-linecap="round" stroke-linejoin="round"/>
<path d="M15.8164 26.2415L17.2486 27.7347L20.8284 23.3367" stroke="#006477" stroke-width="1.43284" stroke-linecap="round" stroke-linejoin="round"/>
<path d="M20.2197 40.2441H19.0549H15.1065H13.7676V33.8999H20.2197V40.2441Z" stroke="#006477" stroke-width="1.43284" stroke-linecap="round" stroke-linejoin="round"/>
<path d="M15.7578 38.2868L18.2297 35.8574" stroke="#006477" stroke-width="1.43284" stroke-linecap="round" stroke-linejoin="round"/>
<path d="M18.2297 38.2868L15.7578 35.8574" stroke="#006477" stroke-width="1.43284" stroke-linecap="round" stroke-linejoin="round"/>
<path d="M26.9346 36.3944L26.9277 24.0538C26.9277 23.7406 27.021 23.4442 27.1814 23.2451L28.2086 22.2104H31.7475L32.7747 23.244C32.9351 23.4431 33.0284 23.7395 33.0284 24.0526L33.0352 36.3932" stroke="#006477" stroke-width="2" stroke-linecap="round" stroke-linejoin="round"/>
<path d="M29.9757 18.6346L29.9746 12.967" stroke="#006477" stroke-width="2" stroke-linecap="round" stroke-linejoin="round"/>
<path d="M28.9433 18.6345H31.0136C31.1581 18.6345 31.2752 18.7497 31.2752 18.8918V22.2093H28.6816V18.8918C28.6816 18.7497 28.7988 18.6345 28.9433 18.6345Z" stroke="#006477" stroke-width="2" stroke-linecap="round" stroke-linejoin="round"/>
<path d="M25.8574 36.3941L34.1103 36.3918" stroke="#006477" stroke-width="2" stroke-linecap="round" stroke-linejoin="round"/>
<path d="M27.7637 40.2139L32.1989 40.2117" stroke="#006477" stroke-width="2" stroke-linecap="round" stroke-linejoin="round"/>
<path d="M29.9746 36.3943L29.9883 40.214" stroke="#006477" stroke-width="2" stroke-linecap="round" stroke-linejoin="round"/>
<path d="M33.0282 26.5469H30.8965" stroke="#006477" stroke-width="2" stroke-linecap="round" stroke-linejoin="round"/>
<path d="M33.0282 30.4336H30.8965" stroke="#006477" stroke-width="2" stroke-linecap="round" stroke-linejoin="round"/>
</svg>
