<svg width="68" height="68" viewBox="0 0 68 68" fill="none" xmlns="http://www.w3.org/2000/svg">
<g clip-path="url(#clip0_1558_38039)">
<path d="M1.4164 68C1.05373 68 0.691065 67.8612 0.413398 67.5863C-0.139102 67.0338 -0.139102 66.1357 0.413398 65.5832L11.7467 54.2498C12.2992 53.6973 13.1974 53.6973 13.7499 54.2498C14.3024 54.8023 14.3024 55.7005 13.7499 56.253L2.41656 67.5863C2.14173 67.8612 1.77907 68 1.4164 68Z" fill="#006477"/>
<path d="M24.0828 59.5001C23.9666 59.5001 23.8533 59.486 23.74 59.4576L12.4066 56.6243C11.8995 56.4968 11.5028 56.103 11.3753 55.593L8.54196 44.2596C8.42013 43.778 8.56179 43.2651 8.91313 42.9138L40.0798 11.7471C40.6323 11.1946 41.5305 11.1946 42.083 11.7471C42.6355 12.2996 42.6355 13.1978 42.083 13.7503L11.483 44.3503L13.914 54.0828L23.6465 56.5138L54.2465 25.9138C54.799 25.3613 55.6971 25.3613 56.2496 25.9138C56.8021 26.4663 56.8021 27.3645 56.2496 27.917L25.083 59.0836C24.8166 59.3528 24.454 59.5001 24.0828 59.5001Z" fill="#006477"/>
<path d="M58.0827 31.1667C57.7201 31.1667 57.3574 31.0279 57.0797 30.7531L37.2464 10.9197C36.6939 10.3672 36.6939 9.46907 37.2464 8.91657C37.7989 8.36407 38.6971 8.36407 39.2496 8.91657L59.0829 28.7499C59.6354 29.3024 59.6354 30.2006 59.0829 30.7531C58.8081 31.0279 58.4454 31.1667 58.0827 31.1667Z" fill="#006477"/>
<path d="M66.5831 17.0001C66.2204 17.0001 65.8577 16.8612 65.5801 16.5864L51.4134 2.41974C50.8609 1.86724 50.8609 0.969072 51.4134 0.416572C51.9659 -0.135928 52.8641 -0.135928 53.4166 0.416572L67.5832 14.5832C68.1357 15.1357 68.1357 16.0339 67.5832 16.5864C67.3084 16.8612 66.9457 17.0001 66.5831 17.0001Z" fill="#006477"/>
<path d="M48.1664 12.75C47.8037 12.75 47.4411 12.6112 47.1634 12.3363C46.6109 11.7838 46.6109 10.8857 47.1634 10.3332L54.2467 3.24982C54.7992 2.69732 55.6974 2.69732 56.2499 3.24982C56.8024 3.80232 56.8024 4.70049 56.2499 5.25299L49.1666 12.3363C48.8917 12.6112 48.5291 12.75 48.1664 12.75Z" fill="#006477"/>
<path d="M56.6664 21.25C56.3037 21.25 55.9411 21.1112 55.6634 20.8363C55.1109 20.2838 55.1109 19.3857 55.6634 18.8332L62.7467 11.7498C63.2992 11.1973 64.1974 11.1973 64.7499 11.7498C65.3024 12.3023 65.3024 13.2005 64.7499 13.753L57.6666 20.8363C57.3917 21.1112 57.0291 21.25 56.6664 21.25Z" fill="#006477"/>
<path d="M19.8334 45.3334C19.4707 45.3334 19.1081 45.1946 18.8304 44.9197L14.5804 40.6697C14.0279 40.1172 14.0279 39.2191 14.5804 38.6666C15.1329 38.1141 16.0311 38.1141 16.5836 38.6666L20.8336 42.9166C21.3861 43.4691 21.3861 44.3672 20.8336 44.9197C20.5587 45.1946 20.1961 45.3334 19.8334 45.3334Z" fill="#006477"/>
<path d="M29.7494 35.4167C29.3867 35.4167 29.0241 35.2778 28.7464 35.003L24.4964 30.753C23.9439 30.2005 23.9439 29.3023 24.4964 28.7498C25.0489 28.1973 25.9471 28.1973 26.4996 28.7498L30.7496 32.9998C31.3021 33.5523 31.3021 34.4505 30.7496 35.003C30.4747 35.2778 30.1121 35.4167 29.7494 35.4167Z" fill="#006477"/>
<path d="M39.6889 25.4774C39.3262 25.4774 38.9635 25.3386 38.6859 25.0638L34.4359 20.8138C33.8834 20.2613 33.8834 19.3631 34.4359 18.8106C34.9884 18.2581 35.8865 18.2581 36.439 18.8106L40.689 23.0606C41.2415 23.6131 41.2415 24.5113 40.689 25.0638C40.4142 25.3386 40.0515 25.4774 39.6889 25.4774Z" fill="#006477"/>
<path d="M24.0834 39.6667C23.7207 39.6667 23.3581 39.5278 23.0804 39.253L18.8304 35.003C18.2779 34.4505 18.2779 33.5523 18.8304 32.9998C19.3829 32.4473 20.2811 32.4473 20.8336 32.9998L25.0836 37.2498C25.6361 37.8023 25.6361 38.7005 25.0836 39.253C24.8087 39.5278 24.4461 39.6667 24.0834 39.6667Z" fill="#006477"/>
<path d="M33.9994 29.7502C33.6367 29.7502 33.2741 29.6113 32.9964 29.3365L28.7464 25.0865C28.1939 24.534 28.1939 23.6358 28.7464 23.0833C29.2989 22.5308 30.1971 22.5308 30.7496 23.0833L34.9996 27.3333C35.5521 27.8858 35.5521 28.784 34.9996 29.3365C34.7247 29.6113 34.3621 29.7502 33.9994 29.7502Z" fill="#006477"/>
</g>
<defs>
<clipPath id="clip0_1558_38039">
<rect width="68" height="68" fill="white"/>
</clipPath>
</defs>
</svg>
