<svg width="54" height="67" viewBox="0 0 54 67" fill="none" xmlns="http://www.w3.org/2000/svg">
<path d="M38.041 12H44.9177C46.6202 12 48 13.3734 48 15.0682V57.9318C48 59.6266 46.6202 61 44.9177 61H9.08234C7.37976 61 6 59.6266 6 57.9318V15.0697C6 13.3749 7.37976 12.0015 9.08234 12.0015H15.959" stroke="white" stroke-width="2" stroke-miterlimit="10" stroke-linecap="round"/>
<path d="M38.4026 8H45.64C49.1522 8 52 10.8288 52 14.3175V58.6825C52 62.1712 49.1522 65 45.64 65H8.36004C4.84782 65 2 62.1712 2 58.6825V14.3175C2 10.8288 4.84782 8 8.36004 8H15.6004" stroke="white" stroke-width="2" stroke-miterlimit="10" stroke-linecap="round"/>
<path d="M23 7V4.79019C23 3.24882 24.4028 2 26.1343 2H27.8657C29.5972 2 31 3.24882 31 4.79019V7" stroke="white" stroke-width="2" stroke-linecap="round" stroke-linejoin="round"/>
<path d="M35 7H19V13H35V7Z" stroke="white" stroke-width="2" stroke-linecap="round" stroke-linejoin="round"/>
<path d="M21.7209 23.7171V26.9146H20.095H14.5853H12.7148V18.0591H17.8213" stroke="white" stroke-width="2" stroke-linecap="round" stroke-linejoin="round"/>
<path d="M15.5742 22.1121L17.5733 24.1948L22.5701 18.0559" stroke="white" stroke-width="2" stroke-linecap="round" stroke-linejoin="round"/>
<path d="M21.7209 38.2353V41.4312H20.095H14.5853H12.7148V32.5757H17.8213" stroke="white" stroke-width="2" stroke-linecap="round" stroke-linejoin="round"/>
<path d="M15.5742 36.6286L17.5733 38.7129L22.5701 32.574" stroke="white" stroke-width="2" stroke-linecap="round" stroke-linejoin="round"/>
<path d="M21.7209 56.1741H20.095H14.5837H12.7148V47.3186H21.7209V56.1741Z" stroke="white" stroke-width="2" stroke-linecap="round" stroke-linejoin="round"/>
<path d="M15.4941 53.4418L18.9445 50.0508" stroke="white" stroke-width="2" stroke-linecap="round" stroke-linejoin="round"/>
<path d="M18.9445 53.4418L15.4941 50.0508" stroke="white" stroke-width="2" stroke-linecap="round" stroke-linejoin="round"/>
<path d="M31.0935 50.8003L31.084 33.5749C31.084 33.1378 31.2142 32.724 31.4381 32.4461L32.8719 31.002H37.8116L39.2454 32.4446C39.4692 32.7225 39.5994 33.1362 39.5994 33.5733L39.609 50.7988" stroke="white" stroke-width="2" stroke-linecap="round" stroke-linejoin="round"/>
<path d="M35.3395 26.0105L35.3379 18.0996" stroke="white" stroke-width="2" stroke-linecap="round" stroke-linejoin="round"/>
<path d="M33.8964 26.0105H36.7863C36.9879 26.0105 37.1515 26.1713 37.1515 26.3696V31.0003H33.5312V26.3696C33.5312 26.1713 33.6948 26.0105 33.8964 26.0105Z" stroke="white" stroke-width="2" stroke-linecap="round" stroke-linejoin="round"/>
<path d="M29.5918 50.8002L41.1114 50.7971" stroke="white" stroke-width="2" stroke-linecap="round" stroke-linejoin="round"/>
<path d="M32.2539 56.132L38.4448 56.1289" stroke="white" stroke-width="2" stroke-linecap="round" stroke-linejoin="round"/>
<path d="M35.3398 50.8003L35.3589 56.132" stroke="white" stroke-width="2" stroke-linecap="round" stroke-linejoin="round"/>
<path d="M39.6006 37.0549H36.625" stroke="white" stroke-width="2" stroke-linecap="round" stroke-linejoin="round"/>
<path d="M39.6006 42.4802H36.625" stroke="white" stroke-width="2" stroke-linecap="round" stroke-linejoin="round"/>
</svg>
