<svg width="60" height="60" viewBox="0 0 60 60" fill="none" xmlns="http://www.w3.org/2000/svg">
<g clip-path="url(#clip0_2307_67528)">
<path d="M22.5 12.5H17.5C16.1739 12.5 14.9021 13.0268 13.9645 13.9645C13.0268 14.9021 12.5 16.1739 12.5 17.5V47.5C12.5 48.8261 13.0268 50.0979 13.9645 51.0355C14.9021 51.9732 16.1739 52.5 17.5 52.5H20.7693M37.5 12.5H42.5C43.8261 12.5 45.0979 13.0268 46.0355 13.9645C46.9732 14.9021 47.5 16.1739 47.5 17.5V20.769" stroke="#006477" stroke-width="3" stroke-linecap="round" stroke-linejoin="round"/>
<path d="M32.5 7.5H27.5C24.7386 7.5 22.5 9.73858 22.5 12.5C22.5 15.2614 24.7386 17.5 27.5 17.5H32.5C35.2614 17.5 37.5 15.2614 37.5 12.5C37.5 9.73858 35.2614 7.5 32.5 7.5Z" stroke="#006477" stroke-width="3" stroke-linecap="round" stroke-linejoin="round"/>
<path d="M36.5733 51.463L31.1389 52.5499L32.2258 47.1154C32.2645 46.9219 32.3597 46.7441 32.4993 46.6045L42.1805 36.923L46.7959 32.3076L51.381 36.8927L46.7656 41.5081L37.0843 51.1895C36.9447 51.3291 36.7669 51.4243 36.5733 51.463Z" stroke="#006477" stroke-width="3" stroke-linecap="round" stroke-linejoin="round"/>
</g>
<defs>
<clipPath id="clip0_2307_67528">
<rect width="60" height="60" fill="white"/>
</clipPath>
</defs>
</svg>
