<svg width="60" height="60" viewBox="0 0 60 60" fill="none" xmlns="http://www.w3.org/2000/svg">
<path d="M10 48.5C9.17157 48.5 8.5 49.1716 8.5 50C8.5 50.8284 9.17157 51.5 10 51.5V48.5ZM50 51.5C50.8284 51.5 51.5 50.8284 51.5 50C51.5 49.1716 50.8284 48.5 50 48.5V51.5ZM18.8889 41.8333C18.0605 41.8333 17.3889 42.5049 17.3889 43.3333C17.3889 44.1618 18.0605 44.8333 18.8889 44.8333V41.8333ZM34.4444 44.8333C35.2729 44.8333 35.9444 44.1618 35.9444 43.3333C35.9444 42.5049 35.2729 41.8333 34.4444 41.8333V44.8333ZM23.3333 35.1667C22.5049 35.1667 21.8333 35.8382 21.8333 36.6667C21.8333 37.4951 22.5049 38.1667 23.3333 38.1667V35.1667ZM30 38.1667C30.8284 38.1667 31.5 37.4951 31.5 36.6667C31.5 35.8382 30.8284 35.1667 30 35.1667V38.1667ZM21.1111 14.4444V12.9444C20.2827 12.9444 19.6111 13.616 19.6111 14.4444H21.1111ZM32.2222 14.4444H33.7222C33.7222 13.616 33.0507 12.9444 32.2222 12.9444V14.4444ZM32.2222 30V31.5C33.0507 31.5 33.7222 30.8284 33.7222 30H32.2222ZM21.1111 30H19.6111C19.6111 30.8284 20.2827 31.5 21.1111 31.5V30ZM23.3333 14.4444V15.9444C24.0216 15.9444 24.6216 15.476 24.7885 14.8082L23.3333 14.4444ZM28.8889 10L30.3441 9.6362C30.1772 8.96845 29.5772 8.5 28.8889 8.5V10ZM24.4444 10V8.5C23.7561 8.5 23.1562 8.96845 22.9892 9.6362L24.4444 10ZM30 14.4444L28.5448 14.8082C28.7117 15.476 29.3117 15.9444 30 15.9444V14.4444ZM32.2222 19.6111C31.3938 19.6111 30.7222 20.2827 30.7222 21.1111C30.7222 21.9395 31.3938 22.6111 32.2222 22.6111V19.6111ZM39.4649 48.7152C38.7554 49.1428 38.5267 50.0646 38.9543 50.7742C39.3819 51.4837 40.3037 51.7123 41.0132 51.2848L39.4649 48.7152ZM10 51.5H50V48.5H10V51.5ZM18.8889 44.8333H34.4444V41.8333H18.8889V44.8333ZM23.3333 38.1667H30V35.1667H23.3333V38.1667ZM30.7222 14.4444V30H33.7222V14.4444H30.7222ZM32.2222 28.5H21.1111V31.5H32.2222V28.5ZM22.6111 30V14.4444H19.6111V30H22.6111ZM21.1111 15.9444H23.3333V12.9444H21.1111V15.9444ZM24.7885 14.8082L25.8997 10.3638L22.9892 9.6362L21.8781 14.0806L24.7885 14.8082ZM24.4444 11.5H28.8889V8.5H24.4444V11.5ZM27.4337 10.3638L28.5448 14.8082L31.4552 14.0806L30.3441 9.6362L27.4337 10.3638ZM30 15.9444H32.2222V12.9444H30V15.9444ZM32.2222 22.6111C39.9849 22.6111 46.2778 28.904 46.2778 36.6667H49.2778C49.2778 27.2471 41.6417 19.6111 32.2222 19.6111V22.6111ZM46.2778 36.6667C46.2778 41.7778 43.5506 46.2533 39.4649 48.7152L41.0132 51.2848C45.9623 48.3027 49.2778 42.8726 49.2778 36.6667H46.2778Z" fill="white"/>
</svg>
