<svg width="60" height="60" viewBox="0 0 60 60" fill="none" xmlns="http://www.w3.org/2000/svg">
<rect width="60" height="60" fill="white"/>
<path d="M52.8992 32.4588L48.0203 26.4267V18.7884C48.0203 18.0824 47.379 17.5101 46.5896 17.5101H45.1214C44.3306 17.5101 43.6893 18.0838 43.6893 18.7884V21.0718L38.205 14.2891C37.9807 14.013 37.4832 14.013 37.2603 14.2891L32.6014 20.0494C32.4432 20.245 32.4734 20.5297 32.669 20.6864C32.8631 20.8432 33.1492 20.8144 33.3074 20.6189L37.7348 15.1461L47.911 27.728V44.4367H41.1412V37.4167C41.1412 35.5431 39.617 34.0175 37.7434 34.0175C36.7167 34.0175 35.7562 34.4747 35.1077 35.2699C34.9495 35.464 34.9783 35.7502 35.1724 35.9084C35.3665 36.0665 35.6527 36.0378 35.8108 35.8422C36.2868 35.2584 36.9914 34.9234 37.7434 34.9234C39.1166 34.9234 40.2354 36.0421 40.2354 37.4153V44.4353H36.7212C36.471 44.4353 36.2683 44.638 36.2683 44.8882C36.2683 45.1384 36.471 45.3412 36.7212 45.3412H48.1238C48.5063 45.3412 48.8184 45.0493 48.8184 44.6912V28.8467L52.1975 33.0253C52.2866 33.136 52.4175 33.1936 52.5498 33.1936C52.6504 33.1936 52.7511 33.1605 52.8345 33.0929C53.0286 32.9347 53.0588 32.65 52.9021 32.4545L52.8992 32.4588ZM44.5966 18.7898C44.5966 18.5885 44.8367 18.4174 45.1229 18.4174H46.591C46.8757 18.4174 47.1144 18.5885 47.1144 18.7898V25.3065L44.5966 22.1948V18.7898Z" fill="#75C9DA" stroke="#75C9DA" stroke-width="2"/>
<path d="M39.4357 27.3878C39.7449 27.3878 39.9979 27.1361 39.9979 26.8255V23.8174C39.9979 22.6527 39.0503 21.7051 37.8842 21.7051H37.5923C36.4275 21.7051 35.4785 22.6527 35.4785 23.8174V26.8255C35.4785 27.1347 35.7302 27.3878 36.0407 27.3878H39.4343H39.4357ZM36.3873 23.8174C36.3873 23.1516 36.9279 22.611 37.5937 22.611H37.8856C38.5514 22.611 39.092 23.1516 39.092 23.8174V26.4804H36.3887V23.8174H36.3873Z" fill="#75C9DA" stroke="#75C9DA" stroke-width="1.5"/>
<path d="M22.1939 31.2609C26.9535 31.2609 30.8244 27.3886 30.8244 22.6305C30.8244 17.8723 26.952 14 22.1939 14C17.4358 14 13.5635 17.8709 13.5635 22.6305C13.5635 27.39 17.4358 31.2609 22.1939 31.2609ZM22.1939 14.9059C26.4531 14.9059 29.9185 18.3713 29.9185 22.629C29.9185 26.8867 26.4531 30.3536 22.1939 30.3536C17.9348 30.3536 14.4694 26.8896 14.4694 22.629C14.4694 18.3684 17.9348 14.9073 22.1939 14.9073V14.9059Z" fill="#4D4D4D" stroke="#4D4D4D" stroke-width="2"/>
<path d="M24.4657 33.7207H19.919C13.3477 33.7207 8 37.6894 8 42.5668V45.1177C8 45.3679 8.20275 45.5707 8.45295 45.5707C8.70315 45.5707 8.9059 45.3679 8.9059 45.1177V42.5668C8.9059 38.1884 13.8466 34.628 19.919 34.628H24.4657C30.5381 34.628 35.4788 38.1884 35.4788 42.5668V45.1177C35.4788 45.3679 35.6816 45.5707 35.9318 45.5707C36.182 45.5707 36.3847 45.3679 36.3847 45.1177V42.5668C36.3847 37.6894 31.0371 33.7207 24.4643 33.7207H24.4657Z" fill="#4D4D4D" stroke="#4D4D4D" stroke-width="2"/>
</svg>
