<svg width="60" height="60" viewBox="0 0 60 60" fill="none" xmlns="http://www.w3.org/2000/svg">
<path d="M30.2542 19.9774C27.618 19.9774 25.1699 19.5951 23.538 18.9281C23.2386 18.8059 23.0952 18.4642 23.2175 18.1648C23.3397 17.8657 23.6814 17.7224 23.9808 17.8442C25.4554 18.4467 27.8008 18.8063 30.2542 18.8063C32.7075 18.8063 35.0541 18.4467 36.5291 17.8442C36.8281 17.7224 37.1702 17.8657 37.2924 18.1648C37.4147 18.4642 37.2713 18.8059 36.9719 18.9281C35.34 19.5947 32.8915 19.9774 30.2542 19.9774Z" fill="#75C9DA" stroke="#75C9DA"/>
<path d="M32.6971 13.8627C32.3738 13.8627 32.1118 13.6007 32.1118 13.2773V8.62547C32.0588 8.50163 31.4225 8.17072 30.2414 8.17072C29.0603 8.17072 28.424 8.50123 28.3698 8.63304L28.3714 13.2773C28.3714 13.6007 28.1094 13.8627 27.786 13.8627C27.4627 13.8627 27.2007 13.6007 27.2007 13.2773V8.62547C27.2007 7.63793 28.3945 7 30.2418 7C32.0891 7 33.2829 7.63793 33.2829 8.62547V13.2773C33.2829 13.6007 33.0209 13.8627 32.6975 13.8627H32.6971Z" fill="#75C9DA" stroke="#75C9DA"/>
<path d="M17.0868 52.0002C16.7635 52.0002 16.5015 51.7382 16.5015 51.4148V38.8275C16.5015 38.5042 16.7635 38.2422 17.0868 38.2422C17.4102 38.2422 17.6722 38.5042 17.6722 38.8275V51.4148C17.6722 51.7382 17.4102 52.0002 17.0868 52.0002Z" fill="#4D4D4D" stroke="#4D4D4D"/>
<path d="M43.4228 52.0002C43.0994 52.0002 42.8374 51.7382 42.8374 51.4148V38.8275C42.8374 38.5042 43.0994 38.2422 43.4228 38.2422C43.7461 38.2422 44.0081 38.5042 44.0081 38.8275V51.4148C44.0081 51.7382 43.7461 52.0002 43.4228 52.0002Z" fill="#4D4D4D" stroke="#4D4D4D"/>
<path d="M30.2546 46.9979C25.1325 46.9979 20.9648 42.8307 20.9648 37.7086C20.9648 37.5437 20.97 37.3709 20.9808 37.1802C20.9987 36.8576 21.2754 36.6123 21.598 36.6283C21.9209 36.6462 22.1678 36.9225 22.1499 37.2455C22.1403 37.4139 22.136 37.5656 22.136 37.7082C22.136 42.1848 25.778 45.8268 30.255 45.8268C34.732 45.8268 38.374 42.1848 38.374 37.7082C38.374 37.5652 38.3696 37.4139 38.36 37.2451C38.3421 36.9221 38.589 36.6458 38.912 36.6279C39.2341 36.61 39.5109 36.8568 39.5292 37.1798C39.5399 37.3705 39.5451 37.5433 39.5451 37.7082C39.5451 42.8303 35.3779 46.9975 30.2554 46.9975L30.2546 46.9979Z" fill="#4D4D4D" stroke="#4D4D4D"/>
<path d="M30.2544 34.4308C28.3438 34.4308 26.532 33.7531 25.1526 32.5222C22.9067 30.518 21.4234 27.1452 20.7449 22.4982C20.715 22.2927 20.7959 22.0864 20.9583 21.9566C21.1204 21.8268 21.3394 21.7926 21.5333 21.8666C23.6745 22.6849 26.8534 23.1544 30.2548 23.1544C33.6563 23.1544 36.8348 22.6849 38.9759 21.8666C39.1699 21.7926 39.3889 21.8268 39.5509 21.9566C39.713 22.0864 39.7942 22.2923 39.764 22.4982C39.0854 27.1452 37.6021 30.5176 35.3562 32.5222C33.9769 33.7531 32.165 34.4308 30.2544 34.4308ZM22.0574 23.2811C22.7463 27.1548 24.048 29.9669 25.9323 31.6486C27.0967 32.6875 28.6317 33.2601 30.2544 33.2601C31.8771 33.2601 33.4122 32.6879 34.5766 31.6486C36.4609 29.9669 37.7626 27.1548 38.4515 23.2811C36.2502 23.9493 33.3306 24.3252 30.2544 24.3252C27.1783 24.3252 24.2587 23.9493 22.0574 23.2811Z" fill="#4D4D4D" stroke="#4D4D4D"/>
<path d="M30.2549 24.3261C30.1414 24.3261 30.0275 24.3253 29.914 24.3245C29.8252 24.3237 29.7372 24.3229 29.6492 24.3213H29.6221C29.5317 24.3193 29.441 24.3177 29.351 24.3154C29.3032 24.3146 29.249 24.313 29.1949 24.3114H29.1809C29.0913 24.3086 29.0025 24.3054 28.9129 24.3018L28.8867 24.301C28.817 24.2986 28.7469 24.2962 28.678 24.2931L28.5076 24.2855C28.191 24.2708 27.8852 24.2524 27.5965 24.2309C27.3671 24.2146 27.1588 24.1975 26.9617 24.1788C26.7654 24.1613 26.5619 24.1405 26.3417 24.1159C26.2557 24.1067 26.1673 24.0963 26.0785 24.0852C25.9642 24.0724 25.8511 24.0581 25.7392 24.043C25.6377 24.0306 25.5366 24.0167 25.4366 24.002C25.2307 23.9733 25.0396 23.9442 24.8572 23.9144C24.7624 23.8992 24.6665 23.8833 24.5705 23.8662C24.4889 23.8522 24.4025 23.8371 24.3161 23.8208C24.2189 23.8029 24.1185 23.7841 24.0194 23.7642C23.9505 23.7511 23.8776 23.7364 23.8056 23.7216L23.7789 23.7161C23.7641 23.7129 23.7502 23.7097 23.7355 23.7069C23.7323 23.7065 23.7295 23.7057 23.7263 23.7049C23.6431 23.6882 23.5615 23.6703 23.4798 23.6515L23.4615 23.6472C23.4531 23.6456 23.4484 23.6448 23.44 23.6428C23.0987 23.5667 22.7726 23.4855 22.4704 23.4011C22.3967 23.3816 22.3183 23.3585 22.2398 23.3358L22.2303 23.333C22.153 23.3111 22.0726 23.2868 21.9933 23.2617C21.9587 23.2514 21.9189 23.2386 21.8794 23.2263L21.8153 23.2064C21.805 23.2032 21.795 23.1996 21.7851 23.196L21.7807 23.1948C21.7771 23.1936 21.7731 23.1924 21.7695 23.1912C21.6927 23.1665 21.6178 23.1418 21.5433 23.1156L21.5191 23.1072C21.478 23.0937 21.4354 23.0785 21.3928 23.0634L21.3514 23.0487C21.347 23.0471 21.3427 23.0455 21.3383 23.0439C21.3291 23.0403 21.32 23.0367 21.3108 23.0335C21.3056 23.0319 21.3004 23.0299 21.2949 23.028C21.2351 23.0065 21.1774 22.985 21.1197 22.9634C18.6376 22.0145 18.1172 20.89 18.1172 20.1135C18.1172 19.337 18.6416 18.5844 19.6774 17.9544C19.8562 15.7822 20.6844 13.753 22.0837 12.0674C23.5328 10.3216 25.4549 9.1063 27.6423 8.55319C27.9556 8.47434 28.2742 8.66389 28.3535 8.97728C28.4327 9.29067 28.2432 9.60883 27.9294 9.68847C25.9841 10.1807 24.2742 11.2618 22.9848 12.8156C21.6795 14.3885 20.9325 16.2975 20.8254 18.3371C20.8146 18.5402 20.6995 18.723 20.5212 18.8201C19.7379 19.2474 19.2883 19.7189 19.2883 20.1143C19.2883 20.3245 19.4504 21.0724 21.5338 21.8688C21.5816 21.8867 21.6337 21.9062 21.6875 21.9257C21.7082 21.9329 21.7293 21.9405 21.75 21.9484L21.789 21.9624C21.8213 21.9739 21.8535 21.9859 21.887 21.9966L21.9204 22.0078C21.924 22.009 21.9276 22.0101 21.9312 22.0113C21.9941 22.0336 22.0574 22.0547 22.1223 22.0754C22.1407 22.081 22.1586 22.0866 22.1761 22.093L22.2306 22.1101C22.2673 22.1216 22.3039 22.1332 22.3406 22.1443C22.415 22.1678 22.4851 22.1889 22.5564 22.2092L22.5695 22.2132C22.6388 22.2335 22.7081 22.2538 22.7786 22.2726C23.0649 22.3522 23.3683 22.4279 23.6865 22.4991C23.706 22.5031 23.7255 22.5075 23.745 22.5119C23.8123 22.527 23.8832 22.5425 23.9557 22.5573C23.9796 22.5617 24.0031 22.5668 24.0274 22.572L24.0457 22.576C24.1078 22.5887 24.1755 22.6023 24.2432 22.6154C24.3419 22.6349 24.4371 22.6528 24.5343 22.6708C24.6167 22.6867 24.6943 22.7002 24.7736 22.7138C24.868 22.7309 24.956 22.7452 25.046 22.7596C25.2212 22.7886 25.4028 22.8161 25.6034 22.844C25.699 22.8579 25.7906 22.8707 25.883 22.8818C25.8862 22.8822 25.8894 22.8826 25.8925 22.883C25.9985 22.8973 26.1048 22.9113 26.2131 22.9232C26.2159 22.9232 26.2187 22.924 26.2215 22.924C26.3039 22.9344 26.3863 22.9439 26.4691 22.9527C26.6838 22.9766 26.8789 22.9965 27.0688 23.0136C27.26 23.0315 27.4595 23.0479 27.6817 23.0638C27.9612 23.0845 28.2567 23.102 28.5613 23.1164L28.7314 23.1239C28.7967 23.1271 28.862 23.1291 28.9273 23.1315L28.9563 23.1323C29.0424 23.1355 29.1276 23.1387 29.2144 23.141H29.2291C29.2777 23.143 29.3263 23.1442 29.3749 23.145C29.4684 23.1474 29.5556 23.149 29.6428 23.1506H29.6711C29.7563 23.1526 29.8404 23.1534 29.9248 23.1542C30.1442 23.1562 30.366 23.1562 30.587 23.1542C30.6706 23.1534 30.7546 23.1526 30.8391 23.151H30.8681C30.9549 23.149 31.0425 23.1474 31.1293 23.145C31.1847 23.1442 31.2333 23.1426 31.2815 23.1414H31.2954C31.3834 23.1387 31.4686 23.1355 31.5546 23.1323L31.5837 23.1315C31.649 23.1291 31.7143 23.1271 31.7788 23.1239L31.9512 23.1164C32.2543 23.102 32.5497 23.0845 32.8281 23.0638C33.0515 23.0479 33.251 23.0315 33.4393 23.0136C33.6321 22.9965 33.8272 22.9766 34.0386 22.9531C34.1254 22.9439 34.2075 22.9344 34.2899 22.924C34.4054 22.9109 34.5129 22.8973 34.6188 22.883C34.622 22.8826 34.6252 22.8822 34.6284 22.8818C34.7208 22.8707 34.8123 22.8583 34.9031 22.8448C35.1086 22.8161 35.2902 22.7886 35.4626 22.7604C35.555 22.7456 35.643 22.7309 35.7314 22.715C35.817 22.7002 35.8947 22.6867 35.9723 22.672C36.0743 22.6532 36.1694 22.6353 36.2642 22.6166C36.3343 22.6031 36.4008 22.5899 36.4665 22.5764C36.4964 22.57 36.5258 22.5637 36.5557 22.5577C36.6282 22.5429 36.699 22.5274 36.7703 22.5115C36.7866 22.5075 36.8058 22.5035 36.8249 22.4995C37.143 22.4283 37.4461 22.3526 37.726 22.275C37.8033 22.2542 37.8726 22.2339 37.9418 22.2136L37.9514 22.2108C38.0263 22.1893 38.0963 22.1682 38.166 22.1463C38.2078 22.1336 38.2445 22.122 38.2807 22.1105L38.3353 22.0934C38.3528 22.0874 38.3707 22.0814 38.389 22.0758C38.4539 22.0551 38.5173 22.034 38.5802 22.0117C38.5838 22.0105 38.5873 22.0093 38.5909 22.0082L38.6216 21.9978C38.6574 21.9859 38.6901 21.9743 38.7223 21.9628L38.7614 21.9488C38.7821 21.9409 38.8028 21.9333 38.8239 21.9261C38.8776 21.9066 38.9298 21.8871 38.982 21.8676C41.061 21.0728 41.2227 20.3249 41.2227 20.1147C41.2227 19.7197 40.7731 19.2482 39.989 18.8205C39.8106 18.7234 39.6955 18.5402 39.6848 18.3375C39.5769 16.2939 38.8279 14.3813 37.5178 12.8068C36.2232 11.251 34.5077 10.1707 32.5569 9.6825C32.2431 9.60405 32.0528 9.28629 32.1312 8.9725C32.2097 8.65871 32.5274 8.46877 32.8412 8.54682C35.0349 9.09594 36.9635 10.3101 38.4181 12.0582C39.8222 13.7458 40.6532 15.7786 40.8328 17.9556C41.8689 18.586 42.3938 19.3115 42.3938 20.1147C42.3938 20.9179 41.8737 22.0153 39.3957 22.9627C39.3336 22.9857 39.2758 23.0076 39.2161 23.0292C39.2109 23.0311 39.2057 23.0327 39.2002 23.0347C39.191 23.0379 39.1819 23.0415 39.1727 23.0451C39.1683 23.0467 39.1639 23.0483 39.1596 23.0499L39.1181 23.0646C39.0755 23.0797 39.0329 23.0953 38.9891 23.1096L38.9676 23.1168C38.8936 23.143 38.8183 23.1681 38.7414 23.1928C38.7379 23.194 38.7339 23.1952 38.7303 23.1964L38.7215 23.1992C38.7116 23.2028 38.7056 23.2048 38.6952 23.2079L38.6311 23.2279C38.5917 23.2402 38.5519 23.2525 38.5125 23.2649C38.438 23.2884 38.358 23.3127 38.2767 23.3358L38.2712 23.3374C38.1927 23.3605 38.1143 23.3832 38.0338 23.4047C37.7384 23.4871 37.4122 23.5683 37.071 23.6444C37.0626 23.6464 37.0542 23.648 37.0459 23.6496L37.0351 23.6523C36.9495 23.6719 36.8679 23.6898 36.7847 23.7065C36.7815 23.7073 36.7787 23.7077 36.7755 23.7085C36.7548 23.7125 36.7345 23.7169 36.7138 23.7216C36.711 23.722 36.7082 23.7228 36.7054 23.7232C36.6333 23.738 36.5605 23.7527 36.4876 23.7666C36.392 23.7857 36.2921 23.8045 36.1897 23.8232C36.1081 23.8391 36.0221 23.8542 35.9341 23.869C35.8445 23.8853 35.7485 23.9008 35.6514 23.9168C35.4718 23.9466 35.2806 23.9753 35.07 24.0048C34.9748 24.0187 34.8741 24.0326 34.7721 24.045C34.6586 24.0605 34.544 24.0748 34.4289 24.0876C34.3468 24.0979 34.2568 24.1083 34.1661 24.1182C33.9494 24.1425 33.746 24.1632 33.5469 24.1812C33.3525 24.1995 33.1443 24.2166 32.9137 24.2329C32.6266 24.254 32.3204 24.2723 32.0054 24.2871L31.8326 24.2946C31.7645 24.2978 31.6944 24.3002 31.6247 24.3026L31.5984 24.3034C31.5088 24.3066 31.42 24.3098 31.3296 24.3126H31.3169C31.2627 24.3146 31.2082 24.3162 31.154 24.3169C31.0704 24.3193 30.9796 24.3209 30.8896 24.3225H30.8618C30.7745 24.3245 30.6865 24.3253 30.5989 24.3265C30.4843 24.3273 30.3708 24.3281 30.2573 24.3281L30.2549 24.3261Z" fill="#75C9DA"/>
<path d="M39.0154 22.478H39.0162M30.2549 24.3261C30.1414 24.3261 30.0275 24.3253 29.914 24.3245C29.8252 24.3237 29.7372 24.3229 29.6492 24.3213H29.6221C29.5317 24.3193 29.441 24.3177 29.351 24.3154C29.3032 24.3146 29.249 24.313 29.1949 24.3114H29.1809C29.0913 24.3086 29.0025 24.3054 28.9129 24.3018L28.8867 24.301C28.817 24.2986 28.7469 24.2962 28.678 24.2931L28.5076 24.2855C28.191 24.2708 27.8852 24.2524 27.5965 24.2309C27.3671 24.2146 27.1588 24.1975 26.9617 24.1788C26.7654 24.1612 26.5619 24.1405 26.3417 24.1159C26.2557 24.1067 26.1673 24.0963 26.0785 24.0852C25.9642 24.0724 25.8511 24.0581 25.7392 24.043C25.6377 24.0306 25.5366 24.0167 25.4366 24.002C25.2307 23.9733 25.0396 23.9442 24.8572 23.9144C24.7624 23.8992 24.6665 23.8833 24.5705 23.8662C24.4889 23.8522 24.4025 23.8371 24.3161 23.8208C24.2189 23.8029 24.1185 23.7841 24.0194 23.7642C23.9505 23.7511 23.8776 23.7364 23.8056 23.7216L23.7789 23.7161C23.7641 23.7129 23.7502 23.7097 23.7355 23.7069C23.7323 23.7065 23.7295 23.7057 23.7263 23.7049C23.6431 23.6882 23.5615 23.6703 23.4798 23.6515L23.4615 23.6472C23.4531 23.6456 23.4484 23.6448 23.44 23.6428C23.0987 23.5667 22.7726 23.4855 22.4704 23.4011C22.3967 23.3816 22.3183 23.3585 22.2398 23.3358L22.2303 23.333C22.153 23.3111 22.0726 23.2868 21.9933 23.2617C21.9587 23.2514 21.9189 23.2386 21.8794 23.2263L21.8153 23.2064C21.805 23.2032 21.795 23.1996 21.7851 23.196L21.7807 23.1948C21.7771 23.1936 21.7731 23.1924 21.7695 23.1912C21.6927 23.1665 21.6178 23.1418 21.5433 23.1156L21.5191 23.1072C21.478 23.0937 21.4354 23.0785 21.3928 23.0634L21.3514 23.0487C21.347 23.0471 21.3427 23.0455 21.3383 23.0439C21.3291 23.0403 21.32 23.0367 21.3108 23.0335C21.3056 23.0319 21.3004 23.0299 21.2949 23.028C21.2351 23.0065 21.1774 22.985 21.1197 22.9634C18.6376 22.0145 18.1172 20.89 18.1172 20.1135C18.1172 19.337 18.6416 18.5844 19.6774 17.9544C19.8562 15.7822 20.6844 13.753 22.0837 12.0674C23.5328 10.3216 25.4549 9.1063 27.6423 8.55319C27.9556 8.47434 28.2742 8.66389 28.3535 8.97728C28.4327 9.29067 28.2432 9.60883 27.9294 9.68847C25.9841 10.1807 24.2742 11.2618 22.9849 12.8156C21.6795 14.3885 20.9325 16.2975 20.8254 18.3371C20.8146 18.5402 20.6995 18.723 20.5212 18.8201C19.7379 19.2474 19.2883 19.7189 19.2883 20.1143C19.2883 20.3245 19.4504 21.0724 21.5338 21.8688C21.5816 21.8867 21.6337 21.9062 21.6875 21.9257C21.7082 21.9329 21.7293 21.9405 21.75 21.9484L21.789 21.9624C21.8213 21.9739 21.8535 21.9859 21.887 21.9966L21.9204 22.0078C21.924 22.0089 21.9276 22.0101 21.9312 22.0113C21.9941 22.0336 22.0574 22.0547 22.1223 22.0754C22.1407 22.081 22.1586 22.0866 22.1761 22.093L22.2306 22.1101C22.2673 22.1216 22.3039 22.1332 22.3406 22.1443C22.415 22.1678 22.4851 22.1889 22.5564 22.2092L22.5695 22.2132C22.6388 22.2335 22.7081 22.2538 22.7786 22.2726C23.0649 22.3522 23.3683 22.4279 23.6865 22.4991C23.706 22.5031 23.7255 22.5075 23.745 22.5119C23.8123 22.527 23.8832 22.5425 23.9557 22.5573C23.9796 22.5617 24.0031 22.5668 24.0274 22.572L24.0457 22.576C24.1078 22.5887 24.1755 22.6023 24.2432 22.6154C24.3419 22.6349 24.4371 22.6528 24.5343 22.6708C24.6167 22.6867 24.6943 22.7002 24.7736 22.7138C24.868 22.7309 24.956 22.7452 25.046 22.7596C25.2212 22.7886 25.4028 22.8161 25.6034 22.844C25.699 22.8579 25.7906 22.8707 25.883 22.8818C25.8862 22.8822 25.8894 22.8826 25.8925 22.883C25.9985 22.8973 26.1048 22.9113 26.2131 22.9232C26.2159 22.9232 26.2187 22.924 26.2215 22.924C26.3039 22.9344 26.3863 22.9439 26.4691 22.9527C26.6838 22.9766 26.8789 22.9965 27.0688 23.0136C27.26 23.0315 27.4595 23.0479 27.6817 23.0638C27.9612 23.0845 28.2567 23.102 28.5613 23.1164L28.7314 23.1239C28.7967 23.1271 28.862 23.1291 28.9273 23.1315L28.9563 23.1323C29.0424 23.1355 29.1276 23.1387 29.2144 23.141H29.2291C29.2777 23.143 29.3263 23.1442 29.3749 23.145C29.4684 23.1474 29.5556 23.149 29.6428 23.1506H29.6711C29.7563 23.1526 29.8404 23.1534 29.9248 23.1542C30.1442 23.1562 30.366 23.1562 30.587 23.1542C30.6706 23.1534 30.7546 23.1526 30.8391 23.151H30.8681C30.9549 23.149 31.0425 23.1474 31.1293 23.145C31.1847 23.1442 31.2333 23.1426 31.2815 23.1414H31.2954C31.3834 23.1387 31.4686 23.1355 31.5546 23.1323L31.5837 23.1315C31.649 23.1291 31.7143 23.1271 31.7788 23.1239L31.9512 23.1164C32.2543 23.102 32.5497 23.0845 32.8281 23.0638C33.0515 23.0479 33.251 23.0315 33.4393 23.0136C33.6321 22.9965 33.8272 22.9766 34.0386 22.9531C34.1254 22.9439 34.2075 22.9344 34.2899 22.924C34.4054 22.9109 34.5129 22.8973 34.6188 22.883C34.622 22.8826 34.6252 22.8822 34.6284 22.8818C34.7208 22.8707 34.8123 22.8583 34.9031 22.8448C35.1086 22.8161 35.2902 22.7886 35.4626 22.7604C35.555 22.7456 35.643 22.7309 35.7314 22.715C35.817 22.7002 35.8947 22.6867 35.9723 22.672C36.0743 22.6532 36.1694 22.6353 36.2642 22.6166C36.3343 22.6031 36.4008 22.5899 36.4665 22.5764C36.4964 22.57 36.5258 22.5636 36.5557 22.5577C36.6282 22.5429 36.699 22.5274 36.7703 22.5115C36.7866 22.5075 36.8058 22.5035 36.8249 22.4995C37.143 22.4283 37.4461 22.3526 37.726 22.275C37.8033 22.2542 37.8726 22.2339 37.9418 22.2136L37.9514 22.2108C38.0263 22.1893 38.0963 22.1682 38.166 22.1463C38.2078 22.1336 38.2445 22.122 38.2807 22.1105L38.3353 22.0934C38.3528 22.0874 38.3707 22.0814 38.389 22.0758C38.4539 22.0551 38.5173 22.034 38.5802 22.0117C38.5838 22.0105 38.5873 22.0093 38.5909 22.0082L38.6216 21.9978C38.6574 21.9859 38.6901 21.9743 38.7223 21.9628L38.7614 21.9488C38.7821 21.9409 38.8028 21.9333 38.8239 21.9261C38.8776 21.9066 38.9298 21.8871 38.982 21.8676C41.061 21.0728 41.2227 20.3249 41.2227 20.1147C41.2227 19.7197 40.7731 19.2482 39.989 18.8205C39.8106 18.7234 39.6955 18.5402 39.6848 18.3375C39.5769 16.2939 38.8279 14.3813 37.5178 12.8068C36.2232 11.251 34.5077 10.1707 32.5569 9.6825C32.2431 9.60405 32.0528 9.28629 32.1312 8.9725C32.2097 8.65871 32.5274 8.46877 32.8412 8.54682C35.0349 9.09594 36.9635 10.3101 38.4181 12.0582C39.8222 13.7458 40.6532 15.7786 40.8328 17.9556C41.8689 18.586 42.3938 19.3115 42.3938 20.1147C42.3938 20.9179 41.8737 22.0153 39.3957 22.9627C39.3336 22.9857 39.2758 23.0076 39.2161 23.0292C39.2109 23.0311 39.2057 23.0327 39.2002 23.0347C39.191 23.0379 39.1819 23.0415 39.1727 23.0451C39.1683 23.0467 39.1639 23.0483 39.1596 23.0499L39.1181 23.0646C39.0755 23.0797 39.0329 23.0953 38.9891 23.1096L38.9676 23.1168C38.8936 23.143 38.8183 23.1681 38.7414 23.1928C38.7379 23.194 38.7339 23.1952 38.7303 23.1964L38.7215 23.1992C38.7116 23.2028 38.7056 23.2048 38.6952 23.2079L38.6311 23.2279C38.5917 23.2402 38.5519 23.2525 38.5125 23.2649C38.438 23.2884 38.358 23.3127 38.2767 23.3358L38.2712 23.3374C38.1927 23.3605 38.1143 23.3832 38.0338 23.4047C37.7384 23.4871 37.4122 23.5683 37.071 23.6444C37.0626 23.6464 37.0542 23.648 37.0459 23.6496L37.0351 23.6523C36.9495 23.6719 36.8679 23.6898 36.7847 23.7065C36.7815 23.7073 36.7787 23.7077 36.7755 23.7085C36.7548 23.7125 36.7345 23.7169 36.7138 23.7216C36.711 23.722 36.7082 23.7228 36.7054 23.7232C36.6333 23.738 36.5605 23.7527 36.4876 23.7666C36.392 23.7857 36.2921 23.8045 36.1897 23.8232C36.1081 23.8391 36.0221 23.8542 35.9341 23.869C35.8445 23.8853 35.7485 23.9008 35.6514 23.9168C35.4718 23.9466 35.2806 23.9753 35.07 24.0048C34.9748 24.0187 34.8741 24.0326 34.7721 24.045C34.6586 24.0605 34.544 24.0748 34.4289 24.0876C34.3468 24.0979 34.2568 24.1083 34.1661 24.1182C33.9494 24.1425 33.746 24.1632 33.5468 24.1812C33.3525 24.1995 33.1443 24.2166 32.9137 24.2329C32.6266 24.254 32.3204 24.2723 32.0054 24.2871L31.8326 24.2946C31.7645 24.2978 31.6944 24.3002 31.6247 24.3026L31.5984 24.3034C31.5088 24.3066 31.42 24.3098 31.3296 24.3126H31.3169C31.2627 24.3146 31.2082 24.3162 31.154 24.3169C31.0704 24.3193 30.9796 24.3209 30.8896 24.3225H30.8618C30.7745 24.3245 30.6865 24.3253 30.5989 24.3265C30.4843 24.3273 30.3708 24.3281 30.2573 24.3281L30.2549 24.3261Z" stroke="#75C9DA"/>
<path d="M51.9245 52.0002H8.58536C8.41413 52.0002 8.25166 51.9253 8.14017 51.7951C8.02907 51.6649 7.98049 51.4925 8.00717 51.3232L8.45077 48.5206C9.19661 43.8091 12.448 39.8772 16.9357 38.2601L25.2315 35.2708V32.3177C25.2315 32.0927 25.3606 31.8876 25.5632 31.79C25.7663 31.6929 26.0068 31.72 26.1825 31.8609C27.3106 32.7641 28.7569 33.2618 30.2545 33.2618C31.7522 33.2618 33.1984 32.7641 34.327 31.8609C34.5026 31.7204 34.7435 31.6929 34.9462 31.79C35.1492 31.8876 35.2783 32.0927 35.2783 32.3177V35.2712L43.5741 38.2605C48.0619 39.8776 51.3132 43.8095 52.059 48.521L52.5026 51.3236C52.5293 51.4929 52.4807 51.6653 52.3696 51.7955C52.2585 51.9257 52.0957 52.0006 51.9245 52.0006V52.0002ZM9.27067 50.8294H51.2391L50.9027 48.7038C50.2237 44.4136 47.2635 40.8341 43.1771 39.3615L34.4942 36.2324C34.262 36.1488 34.1071 35.9286 34.1071 35.6817V33.4199C32.9547 34.0777 31.6215 34.4317 30.2541 34.4317C28.8867 34.4317 27.5539 34.0777 26.4019 33.4199V35.6817C26.4019 35.9286 26.247 36.1488 26.0148 36.2324L17.3319 39.3615C13.2456 40.8341 10.2853 44.414 9.60636 48.7038L9.26988 50.8294H9.27067Z" fill="#4D4D4D" stroke="#4D4D4D"/>
</svg>
