<svg width="60" height="60" viewBox="0 0 60 60" fill="none" xmlns="http://www.w3.org/2000/svg">
<rect width="60" height="60" fill="white"/>
<path d="M19.0257 22.4612C18.8852 21.4073 18.8127 20.3136 18.8127 19.1895H18.8057C18.8057 12.7348 23.8192 7.5 30.0031 7.5C36.1869 7.5 41.1982 12.7325 41.1982 19.1895C41.1982 20.3136 41.1256 21.4073 40.9852 22.4612H40.9781C40.8002 23.9849 39.6463 25.0576 38.1928 25.0576C38.043 25.0576 37.8979 25.0366 37.7528 25.0132C36.5287 29.9746 33.5233 33.4894 30.0031 33.4894C26.4828 33.4894 23.4752 29.9746 22.2534 25.0132C22.1106 25.0366 21.9655 25.0576 21.8133 25.0576C20.3598 25.0576 19.2059 23.9873 19.028 22.4612H19.0257Z" fill="white" stroke="white" stroke-width="2.5" stroke-linecap="round" stroke-linejoin="round"/>
<path d="M29.9884 7.50586C23.8046 7.50586 18.791 12.7383 18.791 19.1954H18.798C18.798 19.5038 18.8168 19.803 18.8285 20.1068C22.0257 19.0318 23.8865 16.9729 25.1574 14.4116C25.1574 14.4116 25.1574 14.4093 25.1551 14.4069H25.1598C25.1598 14.4069 25.1598 14.4093 25.1598 14.4116C26.9316 18.0152 32.1207 20.5765 37.4034 20.5765C38.7118 20.5765 39.9711 20.4199 41.1554 20.1278C41.1671 19.817 41.1858 19.5108 41.1858 19.1954C41.1858 12.7407 36.1723 7.50586 29.9908 7.50586H29.9884Z" fill="white" stroke="white" stroke-width="2.5" stroke-linecap="round" stroke-linejoin="round"/>
<path d="M8.32959 52.4997L7.51038 41.4411C7.34654 39.2327 9.14178 37.1365 11.5011 36.7882L22.3872 35.2949L29.3013 52.0252C29.5307 52.6399 30.4693 52.6399 30.6987 52.0252L37.6128 35.2949L48.4989 36.7882C50.8582 37.1388 52.6535 39.2327 52.4896 41.4411L51.6704 52.4997H8.32959Z" fill="white" stroke="white" stroke-width="2.5" stroke-linecap="round" stroke-linejoin="round"/>
<path d="M19.0257 22.4612C18.8852 21.4073 18.8127 20.3136 18.8127 19.1895H18.8057C18.8057 12.7348 23.8192 7.5 30.0031 7.5C36.1869 7.5 41.1982 12.7325 41.1982 19.1895C41.1982 20.3136 41.1256 21.4073 40.9852 22.4612H40.9781C40.8002 23.9849 39.6463 25.0576 38.1928 25.0576C38.043 25.0576 37.8979 25.0366 37.7528 25.0132C36.5287 29.9746 33.5233 33.4894 30.0031 33.4894C26.4828 33.4894 23.4752 29.9746 22.2534 25.0132C22.1106 25.0366 21.9655 25.0576 21.8133 25.0576C20.3598 25.0576 19.2059 23.9873 19.028 22.4612H19.0257Z" stroke="#4D4D4D" stroke-width="2.5" stroke-linejoin="round"/>
<path d="M41.1739 20.1213C39.9896 20.4134 38.728 20.57 37.4173 20.57C32.1322 20.57 26.9408 18.0063 25.1689 14.4004" stroke="#4D4D4D" stroke-width="2.5" stroke-linejoin="round"/>
<path d="M30 36.7695V43.0863" stroke="#75C9DA" stroke-width="2.5" stroke-linejoin="round"/>
<path d="M8.32959 52.4997L7.51038 41.4411C7.34654 39.2327 9.14178 37.1365 11.5011 36.7882L22.3872 35.2949L29.3013 52.0252C29.5307 52.6399 30.4693 52.6399 30.6987 52.0252L37.6128 35.2949L48.4989 36.7882C50.8582 37.1388 52.6535 39.2327 52.4896 41.4411L51.6704 52.4997" stroke="#75C9DA" stroke-width="2.5" stroke-linejoin="round"/>
</svg>
