<svg width="60" height="60" viewBox="0 0 60 60" fill="none" xmlns="http://www.w3.org/2000/svg">
<rect width="60" height="60" fill="white"/>
<path d="M26.5869 52.4961H33.3048" stroke="white" stroke-width="2.5" stroke-linecap="round" stroke-linejoin="round"/>
<path d="M7.5 52.4961H26.5869" stroke="#75C9DA" stroke-width="2.5" stroke-linejoin="round"/>
<path d="M33.3047 52.4961H52.4999" stroke="#75C9DA" stroke-width="2.5" stroke-linejoin="round"/>
<path d="M40.883 14.2249C42.7361 14.2249 44.2454 12.7156 44.2454 10.8625C44.2454 9.00934 42.7384 7.5 40.883 7.5C39.0275 7.5 37.5205 9.00699 37.5205 10.8625C37.5205 12.7179 39.0275 14.2249 40.883 14.2249Z" stroke="#4D4D4D" stroke-width="2.5" stroke-linejoin="round"/>
<path d="M44.2841 45.8815L45.273 32.5342C47.0744 32.5342 48.5366 31.0721 48.5366 29.2709V20.2205C48.5366 18.7207 47.3216 17.5059 45.8217 17.5059H33.2666" stroke="#4D4D4D" stroke-width="2.5" stroke-linejoin="round"/>
<path d="M18.9279 14.2249C17.0748 14.2249 15.5654 12.7156 15.5654 10.8625C15.5654 9.00934 17.0724 7.5 18.9279 7.5C20.7834 7.5 22.2904 9.00699 22.2904 10.8625C22.2904 12.7179 20.7834 14.2249 18.9279 14.2249Z" stroke="#4D4D4D" stroke-width="2.5" stroke-linejoin="round"/>
<path d="M15.5289 45.8815L14.5399 32.5342C12.7386 32.5342 11.2764 31.0721 11.2764 29.2709V20.2205C11.2764 18.7207 12.4914 17.5059 13.9913 17.5059H26.5464" stroke="#4D4D4D" stroke-width="2.5" stroke-linejoin="round"/>
<path d="M29.9054 20.8402C31.7586 20.8402 33.2679 19.3308 33.2679 17.4777C33.2679 15.6246 31.7609 14.1152 29.9054 14.1152C28.05 14.1152 26.543 15.6222 26.543 17.4777C26.543 19.3332 28.05 20.8402 29.9054 20.8402Z" fill="white" stroke="white" stroke-width="2.5" stroke-linecap="round" stroke-linejoin="round"/>
<path d="M29.9084 20.8441C31.7615 20.8441 33.2708 19.3347 33.2708 17.4816C33.2708 15.6285 31.7638 14.1191 29.9084 14.1191C28.0529 14.1191 26.5459 15.6261 26.5459 17.4816C26.5459 19.3371 28.0529 20.8441 29.9084 20.8441Z" fill="white" stroke="#75C9DA" stroke-width="2.5" stroke-linecap="round" stroke-linejoin="round"/>
<path d="M33.307 52.5006L34.296 39.1533C36.0973 39.1533 37.5595 37.6912 37.5595 35.8901V26.8397C37.5595 25.3399 36.3445 24.125 34.8446 24.125H25.0304C23.5304 24.125 22.3154 25.3399 22.3154 26.8397V35.8901C22.3154 37.6912 23.7777 39.1533 25.579 39.1533H25.6002L26.5891 52.5006" fill="white"/>
<path d="M33.307 52.5006L34.296 39.1533C36.0973 39.1533 37.5595 37.6912 37.5595 35.8901V26.8397C37.5595 25.3399 36.3445 24.125 34.8446 24.125H25.0304C23.5304 24.125 22.3154 25.3399 22.3154 26.8397V35.8901C22.3154 37.6912 23.7777 39.1533 25.579 39.1533H25.6002L26.5891 52.5006" stroke="#75C9DA" stroke-width="2.5" stroke-linecap="round" stroke-linejoin="round"/>
</svg>
