<svg width="60" height="60" viewBox="0 0 60 60" fill="none" xmlns="http://www.w3.org/2000/svg">
<rect width="60" height="60" fill="white"/>
<path d="M39.4007 28.1946C41.2604 20.43 36.3805 12.6499 28.5012 10.8173C20.6219 8.9847 12.7269 13.7935 10.8673 21.5581C9.00757 29.3227 13.8874 37.1028 21.7667 38.9354C29.646 40.768 37.541 35.9592 39.4007 28.1946Z" fill="white" stroke="#75C9DA" stroke-width="2.5" stroke-linecap="round" stroke-linejoin="round"/>
<path d="M34.5792 21.7759H28.2839V15.5723H21.9887V21.7759H15.6934V27.9796H21.9887V34.1832H28.2839V27.9796H34.5792V21.7759Z" fill="white" stroke="#75C9DA" stroke-width="2.5" stroke-linecap="round" stroke-linejoin="round"/>
<path d="M44.2072 17.8959C46.2957 17.8959 47.9934 16.2207 47.9934 14.1647C47.9934 12.1088 46.2935 10.4336 44.2072 10.4336C42.1209 10.4336 40.4209 12.1088 40.4209 14.1647C40.4209 16.2207 42.1186 17.8959 44.2072 17.8959Z" fill="white" stroke="white" stroke-width="16" stroke-linecap="round" stroke-linejoin="round"/>
<path d="M47.7052 50.242L48.8188 37.6749C50.8483 37.6749 52.496 36.0534 52.496 34.0512V24.0044C52.496 22.3404 51.1278 20.9922 49.4392 20.9922H39.044C37.3555 20.9922 35.9873 22.3404 35.9873 24.0044V34.0512C35.9873 36.0512 37.6327 37.6749 39.6645 37.6749H39.6895L40.8031 50.2442" stroke="white" stroke-width="8" stroke-linecap="square" stroke-linejoin="round"/>
<path d="M44.2062 17.8959C46.2948 17.8959 47.9925 16.2207 47.9925 14.1647C47.9925 12.1088 46.2925 10.4336 44.2062 10.4336C42.1199 10.4336 40.4199 12.1088 40.4199 14.1647C40.4199 16.2207 42.1176 17.8959 44.2062 17.8959Z" stroke="#4D4D4D" stroke-width="2.5" stroke-linecap="round" stroke-linejoin="round"/>
<path d="M40.7988 52.498H47.7077" stroke="white" stroke-width="3" stroke-linecap="round" stroke-linejoin="round"/>
<path d="M10.4746 52.498H40.7988" stroke="#4D4D4D" stroke-width="2.5" stroke-linejoin="round"/>
<path d="M47.708 52.498H52.4965" stroke="#4D4D4D" stroke-width="2.5" stroke-linejoin="round"/>
<path d="M47.7101 52.492L48.8237 37.6749C50.8532 37.6749 52.5009 36.0534 52.5009 34.0512V24.0044C52.5009 22.3404 51.1327 20.9922 49.4441 20.9922H39.0489C37.3603 20.9922 35.9922 22.3404 35.9922 24.0044V34.0512C35.9922 36.0512 37.6376 37.6749 39.6694 37.6749H39.6944L40.808 52.4942" fill="white"/>
<path d="M47.7101 52.492L48.8237 37.6749C50.8532 37.6749 52.5009 36.0534 52.5009 34.0512V24.0044C52.5009 22.3404 51.1327 20.9922 49.4441 20.9922H39.0489C37.3603 20.9922 35.9922 22.3404 35.9922 24.0044V34.0512C35.9922 36.0512 37.6376 37.6749 39.6694 37.6749H39.6944L40.808 52.4942" stroke="#4D4D4D" stroke-width="2.5" stroke-linecap="round" stroke-linejoin="round"/>
</svg>
