<svg width="60" height="60" viewBox="0 0 60 60" fill="none" xmlns="http://www.w3.org/2000/svg">
<rect width="60" height="60" fill="white"/>
<path d="M34.4502 40.4441L44.8844 51.1616C46.6251 52.9467 49.4518 52.9467 51.19 51.1616C52.9355 49.3813 52.9355 46.4845 51.19 44.7043L40.7558 33.9844" fill="white"/>
<path d="M26.3372 41.9456C17.718 41.9456 10.7051 34.9371 10.7051 26.3234C10.7051 17.7096 17.718 10.7012 26.3372 10.7012C34.9565 10.7012 41.9694 17.7096 41.9694 26.3234C41.9694 34.9371 34.9565 41.9456 26.3372 41.9456Z" fill="white"/>
<path d="M51.1885 44.7057L42.5669 35.8476C44.214 33.0514 45.173 29.8048 45.173 26.3257C45.173 15.9269 36.7408 7.5 26.3353 7.5C15.9299 7.5 7.5 15.9269 7.5 26.3233C7.5 36.7197 15.9347 45.149 26.3377 45.149C29.9844 45.149 33.377 44.0971 36.2613 42.3025L44.8853 51.1607C46.626 52.9457 49.4527 52.9457 51.1909 51.1607C52.9364 49.3804 52.9364 46.4836 51.1909 44.7033L51.1885 44.7057Z" stroke="#4D4D4D" stroke-width="2.5" stroke-linejoin="round"/>
<mask id="mask0_1565_44934" style="mask-type:luminance" maskUnits="userSpaceOnUse" x="13" y="13" width="26" height="26">
<path d="M38.8079 26.3115C38.8079 33.2049 33.2167 38.7949 26.3165 38.7949C19.4163 38.7949 13.8252 33.2073 13.8252 26.3115C13.8252 19.4157 19.4163 13.8281 26.3165 13.8281C33.2167 13.8281 38.8079 19.4181 38.8079 26.3115Z" fill="white"/>
</mask>
<g mask="url(#mask0_1565_44934)">
<path d="M30.3316 22.2472C30.3316 24.4516 28.543 26.2366 26.3396 26.2366C24.1362 26.2366 22.3477 24.4492 22.3477 22.2472C22.3477 20.0453 24.1362 18.2578 26.3396 18.2578C28.543 18.2578 30.3316 20.0453 30.3316 22.2472Z" stroke="#75C9DA" stroke-width="2.5" stroke-linejoin="round"/>
<path d="M30.2762 29.7129H22.2515C19.7449 29.7129 17.7129 31.7436 17.7129 34.2486V39.3785C17.7129 41.8835 19.7449 43.9142 22.2515 43.9142H30.2762C32.7828 43.9142 34.8148 41.8835 34.8148 39.3785V34.2486C34.8148 31.7436 32.7828 29.7129 30.2762 29.7129Z" stroke="#75C9DA" stroke-width="2.5" stroke-linejoin="round"/>
</g>
<path d="M13.21 26.3042C13.21 19.0682 19.0792 13.2051 26.3175 13.2051" stroke="#75C9DA" stroke-width="2.5" stroke-linecap="square" stroke-linejoin="round"/>
</svg>
