<svg width="32" height="10" viewBox="0 0 32 10" fill="none" xmlns="http://www.w3.org/2000/svg">
<path d="M3.9375 6.15234H5.33203L6.05273 7.10156C6.53906 6.59766 6.82617 5.8125 6.82031 4.75781C6.82617 2.81836 5.85352 1.76953 4.46484 1.76953C3.08203 1.76953 2.10352 2.81836 2.10938 4.75781C2.10352 6.69727 3.08203 7.74609 4.46484 7.74609C4.6875 7.74609 4.89844 7.7168 5.09766 7.66406L3.9375 6.15234ZM0.574219 4.75781C0.568359 2.01562 2.23242 0.398438 4.46484 0.398438C6.68555 0.398438 8.36133 2.01562 8.35547 4.75781C8.36133 6.29883 7.83398 7.48242 6.97852 8.22656L8.15625 9.73828H6.66797L5.95898 8.8418C5.50195 9.02344 4.99805 9.11719 4.46484 9.11719C2.23242 9.11719 0.568359 7.49414 0.574219 4.75781ZM13.4827 6.32812V2.63672H14.9709V9H13.5295V7.875H13.4592C13.1663 8.58398 12.4983 9.08203 11.5491 9.08203C10.2893 9.08203 9.42211 8.21484 9.41625 6.69141V2.63672H10.9163V6.45703C10.9163 7.26562 11.3967 7.78125 12.1233 7.78125C12.7795 7.78125 13.4827 7.30078 13.4827 6.32812ZM16.1606 9V2.63672H17.6606V9H16.1606ZM16.0552 0.914062C16.0552 0.46875 16.4477 0.105469 16.9223 0.105469C17.397 0.105469 17.7895 0.46875 17.7895 0.914062C17.7895 1.36523 17.397 1.72852 16.9223 1.73438C16.4477 1.72852 16.0552 1.36523 16.0552 0.914062ZM21.6277 9.12891C19.7292 9.12891 18.5808 7.76953 18.5808 5.84766C18.5808 3.89648 19.7644 2.55469 21.6277 2.55469C23.1687 2.55469 24.2527 3.45703 24.3581 4.82812H22.9284C22.8113 4.21875 22.3659 3.75586 21.6394 3.75C20.7136 3.75586 20.0925 4.5293 20.0925 5.8125C20.0925 7.125 20.7019 7.9043 21.6394 7.91016C22.3015 7.9043 22.7937 7.51758 22.9284 6.83203H24.3581C24.2468 8.17383 23.2273 9.12891 21.6277 9.12891ZM25.2431 9V0.515625H26.7431V5.19141H26.8486L29.1338 2.63672H30.8798L28.413 5.37891L31.0322 9H29.2509L27.2939 6.26953L26.7431 6.85547V9H25.2431Z" fill="white"/>
</svg>
